<svg width="27" height="28" viewBox="0 0 27 28" fill="none" xmlns="http://www.w3.org/2000/svg">
<path d="M26.6649 19.7962H24.5617C24.3579 19.7962 24.165 19.9 24.0559 20.0719C23.5937 20.7917 23.0552 21.4577 22.4366 22.0665C21.3705 23.1157 20.1296 23.9393 18.7506 24.5122C17.3205 25.1066 15.8032 25.4074 14.2385 25.4074C12.6702 25.4074 11.1528 25.1066 9.72643 24.5122C8.34734 23.9393 7.10652 23.1157 6.04037 22.0665C4.97421 21.0173 4.13729 19.7962 3.55509 18.439C2.95106 17.0353 2.6454 15.5421 2.6454 13.9988C2.6454 12.4554 2.95106 10.9657 3.55509 9.55846C4.13729 8.20131 4.97421 6.98023 6.04037 5.93103C7.10652 4.88183 8.34734 4.05823 9.72643 3.48529C11.1528 2.89086 12.6738 2.59007 14.2385 2.59007C15.8068 2.59007 17.3242 2.89086 18.7506 3.48529C20.1296 4.05823 21.3705 4.88183 22.4366 5.93103C23.0552 6.53978 23.5937 7.20582 24.0559 7.92558C24.165 8.09746 24.3579 8.20131 24.5617 8.20131H26.6649C26.9159 8.20131 27.076 7.94349 26.9632 7.72505C24.5908 3.08065 19.7803 0.0619672 14.4095 0.00109226C6.54615 -0.0955915 0.0145799 6.23899 2.48593e-05 13.9701C-0.0145302 21.7156 6.36422 28 14.2349 28C19.6748 28 24.5653 24.9706 26.9632 20.2725C27.076 20.054 26.9123 19.7962 26.6649 19.7962Z" fill="#F7D452"/>
</svg>
